<svg width="362" height="54" viewBox="0 0 362 54" fill="none" xmlns="http://www.w3.org/2000/svg">
<rect width="362" height="54" rx="5" fill="#F12727"/>
<rect width="362" height="54" rx="5" fill="#F12727"/>
<path d="M151.519 22.542H153.319V22.974C153.319 26.43 152.311 29.904 149.647 31.434L148.297 29.634C150.673 28.248 151.519 25.53 151.519 22.974V22.542ZM151.987 22.542H153.787V22.974C153.787 25.476 154.651 28.014 157.009 29.274L155.713 31.038C153.013 29.634 151.987 26.376 151.987 22.974V22.542ZM148.855 20.742H156.433V22.668H148.855V20.742ZM151.519 18.492H153.787V22.29H151.519V18.492ZM160.771 17.934H163.039V34.602H160.771V17.934ZM158.773 24.324H161.545V26.268H158.773V24.324ZM157.189 18.186H159.421V33.846H157.189V18.186ZM166.079 25.404H167.501C170.939 25.404 172.937 25.368 175.223 25.008L175.457 26.862C173.117 27.258 171.011 27.294 167.501 27.294H166.079V25.404ZM166.079 19.086H174.089V20.976H168.455V26.178H166.079V19.086ZM167.717 22.254H173.603V24.09H167.717V22.254ZM176.609 17.952H179.021V28.014H176.609V17.952ZM173.387 28.266C176.897 28.266 179.093 29.436 179.093 31.434C179.093 33.45 176.897 34.602 173.387 34.602C169.859 34.602 167.681 33.45 167.681 31.434C167.681 29.436 169.859 28.266 173.387 28.266ZM173.387 30.102C171.209 30.102 170.075 30.534 170.075 31.434C170.075 32.352 171.209 32.784 173.387 32.784C175.547 32.784 176.699 32.352 176.699 31.434C176.699 30.534 175.547 30.102 173.387 30.102ZM192.412 17.934H194.788V34.602H192.412V17.934ZM194.248 24.432H197.2V26.43H194.248V24.432ZM181.648 20.4H191.35V22.308H181.648V20.4ZM186.526 23.244C188.956 23.244 190.756 24.9 190.756 27.222C190.756 29.544 188.956 31.2 186.526 31.2C184.096 31.2 182.296 29.544 182.296 27.222C182.296 24.9 184.096 23.244 186.526 23.244ZM186.526 25.188C185.392 25.188 184.582 25.944 184.582 27.222C184.582 28.5 185.392 29.256 186.526 29.256C187.66 29.256 188.47 28.5 188.47 27.222C188.47 25.944 187.66 25.188 186.526 25.188ZM185.32 18.204H187.714V21.12H185.32V18.204ZM209.763 17.934H212.175V34.602H209.763V17.934ZM204.849 19.662H207.225C207.225 24.756 205.497 28.932 199.575 31.794L198.333 29.886C203.121 27.582 204.849 24.558 204.849 20.094V19.662ZM199.215 19.662H205.983V21.552H199.215V19.662Z" fill="white"/>
</svg>
